<?xml version="1.0" standalone="no"?>
<svg xmlns:xlink="http://www.w3.org/1999/xlink" id="wave" style="transform:rotate(180deg); transition: 0.3s" viewBox="0 0 1440 490" version="1.1" xmlns="http://www.w3.org/2000/svg"><defs><linearGradient id="sw-gradient-0" x1="0" x2="0" y1="1" y2="0"><stop stop-color="rgba(236, 250, 255, 1)" offset="0%"/><stop stop-color="rgba(236, 250, 255, 1)" offset="100%"/></linearGradient></defs><path style="transform:translate(0, 0px); opacity:1" fill="url(#sw-gradient-0)" d="M0,98L26.7,122.5C53.3,147,107,196,160,245C213.3,294,267,343,320,351.2C373.3,359,427,327,480,302.2C533.3,278,587,261,640,212.3C693.3,163,747,82,800,114.3C853.3,147,907,294,960,334.8C1013.3,376,1067,310,1120,277.7C1173.3,245,1227,245,1280,277.7C1333.3,310,1387,376,1440,383.8C1493.3,392,1547,343,1600,269.5C1653.3,196,1707,98,1760,89.8C1813.3,82,1867,163,1920,212.3C1973.3,261,2027,278,2080,294C2133.3,310,2187,327,2240,334.8C2293.3,343,2347,343,2400,294C2453.3,245,2507,147,2560,147C2613.3,147,2667,245,2720,245C2773.3,245,2827,147,2880,89.8C2933.3,33,2987,16,3040,73.5C3093.3,131,3147,261,3200,294C3253.3,327,3307,261,3360,269.5C3413.3,278,3467,359,3520,383.8C3573.3,408,3627,376,3680,302.2C3733.3,229,3787,114,3813,57.2L3840,0L3840,490L3813.3,490C3786.7,490,3733,490,3680,490C3626.7,490,3573,490,3520,490C3466.7,490,3413,490,3360,490C3306.7,490,3253,490,3200,490C3146.7,490,3093,490,3040,490C2986.7,490,2933,490,2880,490C2826.7,490,2773,490,2720,490C2666.7,490,2613,490,2560,490C2506.7,490,2453,490,2400,490C2346.7,490,2293,490,2240,490C2186.7,490,2133,490,2080,490C2026.7,490,1973,490,1920,490C1866.7,490,1813,490,1760,490C1706.7,490,1653,490,1600,490C1546.7,490,1493,490,1440,490C1386.7,490,1333,490,1280,490C1226.7,490,1173,490,1120,490C1066.7,490,1013,490,960,490C906.7,490,853,490,800,490C746.7,490,693,490,640,490C586.7,490,533,490,480,490C426.7,490,373,490,320,490C266.7,490,213,490,160,490C106.7,490,53,490,27,490L0,490Z"/></svg>