<?xml version="1.0" standalone="no"?>
<svg xmlns:xlink="http://www.w3.org/1999/xlink" id="wave" style="transform:rotate(180deg); transition: 0.3s" viewBox="0 0 1440 300" version="1.1" xmlns="http://www.w3.org/2000/svg"><defs><linearGradient id="sw-gradient-0" x1="0" x2="0" y1="1" y2="0"><stop stop-color="rgba(230, 245, 246, 1)" offset="0%"/><stop stop-color="rgba(230, 245, 246, 1)" offset="100%"/></linearGradient></defs><path style="transform:translate(0, 0px); opacity:1" fill="url(#sw-gradient-0)" d="M0,0L34.3,5C68.6,10,137,20,206,30C274.3,40,343,50,411,85C480,120,549,180,617,205C685.7,230,754,220,823,205C891.4,190,960,170,1029,140C1097.1,110,1166,70,1234,90C1302.9,110,1371,190,1440,200C1508.6,210,1577,150,1646,105C1714.3,60,1783,30,1851,50C1920,70,1989,140,2057,185C2125.7,230,2194,250,2263,255C2331.4,260,2400,250,2469,225C2537.1,200,2606,160,2674,145C2742.9,130,2811,140,2880,125C2948.6,110,3017,70,3086,80C3154.3,90,3223,150,3291,185C3360,220,3429,230,3497,225C3565.7,220,3634,200,3703,205C3771.4,210,3840,240,3909,240C3977.1,240,4046,210,4114,210C4182.9,210,4251,240,4320,215C4388.6,190,4457,110,4526,95C4594.3,80,4663,130,4731,140C4800,150,4869,120,4903,105L4937.1,90L4937.1,300L4902.9,300C4868.6,300,4800,300,4731,300C4662.9,300,4594,300,4526,300C4457.1,300,4389,300,4320,300C4251.4,300,4183,300,4114,300C4045.7,300,3977,300,3909,300C3840,300,3771,300,3703,300C3634.3,300,3566,300,3497,300C3428.6,300,3360,300,3291,300C3222.9,300,3154,300,3086,300C3017.1,300,2949,300,2880,300C2811.4,300,2743,300,2674,300C2605.7,300,2537,300,2469,300C2400,300,2331,300,2263,300C2194.3,300,2126,300,2057,300C1988.6,300,1920,300,1851,300C1782.9,300,1714,300,1646,300C1577.1,300,1509,300,1440,300C1371.4,300,1303,300,1234,300C1165.7,300,1097,300,1029,300C960,300,891,300,823,300C754.3,300,686,300,617,300C548.6,300,480,300,411,300C342.9,300,274,300,206,300C137.1,300,69,300,34,300L0,300Z"/><defs><linearGradient id="sw-gradient-1" x1="0" x2="0" y1="1" y2="0"><stop stop-color="rgba(230, 245, 246, 1)" offset="0%"/><stop stop-color="rgba(230, 245, 246, 1)" offset="100%"/></linearGradient></defs><path style="transform:translate(0, 50px); opacity:0.9" fill="url(#sw-gradient-1)" d="M0,90L34.3,120C68.6,150,137,210,206,230C274.3,250,343,230,411,200C480,170,549,130,617,100C685.7,70,754,50,823,75C891.4,100,960,170,1029,170C1097.1,170,1166,100,1234,85C1302.9,70,1371,110,1440,130C1508.6,150,1577,150,1646,140C1714.3,130,1783,110,1851,90C1920,70,1989,50,2057,65C2125.7,80,2194,130,2263,150C2331.4,170,2400,160,2469,135C2537.1,110,2606,70,2674,90C2742.9,110,2811,190,2880,220C2948.6,250,3017,230,3086,225C3154.3,220,3223,230,3291,205C3360,180,3429,120,3497,85C3565.7,50,3634,40,3703,45C3771.4,50,3840,70,3909,65C3977.1,60,4046,30,4114,45C4182.9,60,4251,120,4320,120C4388.6,120,4457,60,4526,75C4594.3,90,4663,180,4731,195C4800,210,4869,150,4903,120L4937.1,90L4937.1,300L4902.9,300C4868.6,300,4800,300,4731,300C4662.9,300,4594,300,4526,300C4457.1,300,4389,300,4320,300C4251.4,300,4183,300,4114,300C4045.7,300,3977,300,3909,300C3840,300,3771,300,3703,300C3634.3,300,3566,300,3497,300C3428.6,300,3360,300,3291,300C3222.9,300,3154,300,3086,300C3017.1,300,2949,300,2880,300C2811.4,300,2743,300,2674,300C2605.7,300,2537,300,2469,300C2400,300,2331,300,2263,300C2194.3,300,2126,300,2057,300C1988.6,300,1920,300,1851,300C1782.9,300,1714,300,1646,300C1577.1,300,1509,300,1440,300C1371.4,300,1303,300,1234,300C1165.7,300,1097,300,1029,300C960,300,891,300,823,300C754.3,300,686,300,617,300C548.6,300,480,300,411,300C342.9,300,274,300,206,300C137.1,300,69,300,34,300L0,300Z"/><defs><linearGradient id="sw-gradient-2" x1="0" x2="0" y1="1" y2="0"><stop stop-color="rgba(230, 245, 246, 1)" offset="0%"/><stop stop-color="rgba(230, 245, 246, 1)" offset="100%"/></linearGradient></defs><path style="transform:translate(0, 100px); opacity:0.8" fill="url(#sw-gradient-2)" d="M0,60L34.3,75C68.6,90,137,120,206,135C274.3,150,343,150,411,160C480,170,549,190,617,165C685.7,140,754,70,823,45C891.4,20,960,40,1029,60C1097.1,80,1166,100,1234,130C1302.9,160,1371,200,1440,185C1508.6,170,1577,100,1646,75C1714.3,50,1783,70,1851,80C1920,90,1989,90,2057,90C2125.7,90,2194,90,2263,105C2331.4,120,2400,150,2469,150C2537.1,150,2606,120,2674,105C2742.9,90,2811,90,2880,85C2948.6,80,3017,70,3086,75C3154.3,80,3223,100,3291,90C3360,80,3429,40,3497,60C3565.7,80,3634,160,3703,180C3771.4,200,3840,160,3909,145C3977.1,130,4046,140,4114,150C4182.9,160,4251,170,4320,150C4388.6,130,4457,80,4526,70C4594.3,60,4663,90,4731,100C4800,110,4869,100,4903,95L4937.1,90L4937.1,300L4902.9,300C4868.6,300,4800,300,4731,300C4662.9,300,4594,300,4526,300C4457.1,300,4389,300,4320,300C4251.4,300,4183,300,4114,300C4045.7,300,3977,300,3909,300C3840,300,3771,300,3703,300C3634.3,300,3566,300,3497,300C3428.6,300,3360,300,3291,300C3222.9,300,3154,300,3086,300C3017.1,300,2949,300,2880,300C2811.4,300,2743,300,2674,300C2605.7,300,2537,300,2469,300C2400,300,2331,300,2263,300C2194.3,300,2126,300,2057,300C1988.6,300,1920,300,1851,300C1782.9,300,1714,300,1646,300C1577.1,300,1509,300,1440,300C1371.4,300,1303,300,1234,300C1165.7,300,1097,300,1029,300C960,300,891,300,823,300C754.3,300,686,300,617,300C548.6,300,480,300,411,300C342.9,300,274,300,206,300C137.1,300,69,300,34,300L0,300Z"/></svg>